# xmcd
#
# Track frame offsets:
#       150
#       17295
#       33061
#       46361
#       65932
#       90085
#       107448
#       119347
#       137041
#       157396
#       172335
#
# Disc length: 2753 seconds
#
# Revision: 2
# Processed by: cddbd v1.4PL0 Copyright (c) Steve Scherf et al.
# Submitted via: MusiCat 1.1
#
DISCID=8d0abf0b
DTITLE=Dolly Varden - Forgiven Now
DYEAR=2002
DGENRE=
TTITLE0=Surrounded By the Sound
TTITLE1=Trying to Live Up
TTITLE2=Forgiven Now
TTITLE3=The Lotus Hour
TTITLE4=Overwhelming
TTITLE5=Wish I Were There
TTITLE6=There's a Magic
TTITLE7=Time for Me to Leave
TTITLE8=Disappear
TTITLE9=1000 Men Like Cigarettes
TTITLE10=Meant to Be
EXTD=2002\n\n\n
EXTT0=
EXTT1=
EXTT2=
EXTT3=
EXTT4=
EXTT5=
EXTT6=
EXTT7=
EXTT8=
EXTT9=
EXTT10=
PLAYORDER=
